<svg xmlns="http://www.w3.org/2000/svg" width="1828.829" height="304.466" viewBox="0 0 1828.829 304.466"><path d="M1851.817,745.589a71.124,71.124,0,0,0-85.186-106.978,63.464,63.464,0,0,0-43.053-20.3,95.458,95.458,0,0,0-178.68-61.5,77.867,77.867,0,0,0-119.8,31.127,63.3,63.3,0,0,0-27.86,10.553,66.016,66.016,0,0,0-77.642-57.132,69.774,69.774,0,0,0-135.638,18.309,66.364,66.364,0,0,0-105.024,14.889,63.752,63.752,0,0,0-58.725,6.85,93.8,93.8,0,0,0-181.849-4.329,62.916,62.916,0,0,0-15.225-5.367A127.876,127.876,0,0,0,618.39,633.216a72.481,72.481,0,0,0-6.655,12.754c.074-1.168.177-2.329.177-3.515A55.064,55.064,0,0,0,518.3,603.112a78.972,78.972,0,0,0-133.772-71.047,67.235,67.235,0,1,0-130.151-23.682l0,.113a76.019,76.019,0,0,0-120.363,61.836c0,1.937.149,3.834.29,5.728A79.255,79.255,0,0,0,66.7,678.131a52.921,52.921,0,0,0-26.727,67.458Z" transform="translate(-36.234 -441.123)" fill="#d0e0f0"/></svg>